<svg xmlns="http://www.w3.org/2000/svg" xmlns:xlink="http://www.w3.org/1999/xlink" version="1.1" id="Layer_1" x="0px" y="0px" enable-background="new 0 0 595.276 595.276" xml:space="preserve" viewBox="108.89 141.93 377.5 311.42">
<path id="color_x5F_6" fill="#51eb9c" d="M403.498,258.79h-21.302c0.519-2.986,0.875-5.257,1.056-6.44h19.594  C402.986,253.493,403.242,255.747,403.498,258.79z M398.34,451.201h10.368l-16.032-83.152  C371.867,406.633,395.042,445.962,398.34,451.201z M423.538,404.674l-0.012,0.001c5.614,20.528,2.206,41.121,1.13,46.526h9.342  l11.621-84.221C439.869,370.524,421.786,383.436,423.538,404.674z M415.52,390.174c-11.76-20.865-18.828-23.741-21.178-24.05  l16.402,85.077h11.873C423.784,445.544,429.275,414.579,415.52,390.174z M456.391,400.199c-0.376-23.322-6.205-31.072-8.734-33.347  l-11.639,84.349h12.735C450.223,447.153,456.829,427.383,456.391,400.199z M247.609,395.069c3.197-1.844,5.503-3.245,6.445-3.825  c-0.154-11.916-5.244-19.226-6.884-21.275c-1.122,0.638-3.41,1.884-6.253,3.13c-0.186,0.082-0.091,0.098-0.091,0.098  L247.609,395.069z M276.909,272.303l-0.056-1.161c1.02,0.014,4.563,0.271,10.675,2.701c-1.901,2.49-7.9,10.353-9.567,12.563  c-1.168,1.549-2.359,2.278-3.561,2.143c-2.318-0.246-4.547-3.468-5.633-5.445C277.668,279.539,276.914,272.327,276.909,272.303z   M262.375,184.314c9.263-5.396,27.514-4.489,33.519-4.017c-2.584-3.955-11.026-13.972-30.244-13.972l-0.39,0.001  c-22.99,0.157-37.336,5.245-43.854,15.554c-3.786,5.987-6.726,17.636-7.095,30.234c6.227-1.459,27.688-4.291,35.908-5.35  C250.573,203.28,252.547,190.04,262.375,184.314z M251.949,290.277c2.803-0.913,4.952-3.699,6.056-5.416  c-6.128-0.347-10.683-3.143-13.612-5.699c-1.561-1.362-2.859-2.853-3.787-4.142l-7.552,4.502c2.286,2.063,8.251,7.206,14.133,10.274  C248.801,290.641,250.359,290.797,251.949,290.277z"/>
<path id="color_x5F_4" fill="#36a7f9" d="M383.314,244.683h-29.053v-79h43.129v29.625h24.5v-29.625h34.422v79H436.71  c-3.187-1.876-17.83-2.296-27.98-2.354c0.096-0.035,0.188-0.068,0.271-0.098c1.407-0.505,3.003-1.077,3.599-2.484  c0.336-0.791,0.275-1.698-0.176-2.694c-0.271-0.599-0.9-1.043-1.922-1.359c-4.531-1.401-19.219-0.585-24.208,2.438  C384.979,238.929,383.919,241.721,383.314,244.683z M415.758,144.069l-28.822-0.136l-30.309,19.749h41.32L415.758,144.069z   M231.344,230.681c-1.943-2.196-2.67-5.424-2.158-9.592c0.691-5.634,4.145-6.476,6.143-6.476c3.207,0,6.454,1.995,6.59,2.08  l0.426,0.265l0.043,0.5c0.262,3.061,1.318,6.472,2.416,6.472c0.228,0,0.879-0.152,2.002-1.561c2.561-3.21,2.219-6.746,1.945-9.587  c-0.129-1.336-0.257-2.692,0.017-3.812c-12.759,1.662-30.829,4.195-34.492,5.178c-0.087,12.733,2.51,26.172,9.565,35.563  c4.816,6.412,11.235,7.996,13.742,8.38l-0.666-24.613C235.525,233.313,233.151,232.724,231.344,230.681z M166.445,175.436  l18.131,9.627c0.661,0.351,1.487,0.3,1.676-0.053c0.105-0.199,0.016-0.454-0.048-0.588c-0.153-0.325-0.462-0.629-0.847-0.833  l-18.129-9.628c-0.309-0.163-0.635-0.249-0.943-0.249c-0.353,0-0.633,0.116-0.732,0.304c-0.106,0.199-0.016,0.453,0.047,0.588  C165.753,174.928,166.061,175.231,166.445,175.436z M156.729,199.397l20.416,2.138c0.84,0.082,1.496-0.309,1.533-0.678  c0.023-0.224-0.154-0.425-0.264-0.525c-0.264-0.244-0.663-0.409-1.096-0.455l-20.417-2.138c-0.081-0.008-0.161-0.013-0.24-0.013  c-0.73,0-1.259,0.357-1.293,0.69c-0.023,0.224,0.155,0.425,0.264,0.525C155.896,199.186,156.295,199.352,156.729,199.397z   M195.236,171.447c0.357,0.361,0.82,0.585,1.209,0.585c0.123,0,0.293-0.023,0.404-0.135c0.117-0.114,0.142-0.288,0.143-0.413  c0.002-0.389-0.216-0.852-0.57-1.209l-14.43-14.601c-0.355-0.36-0.819-0.584-1.209-0.584c-0.123,0-0.295,0.023-0.408,0.136  c-0.279,0.276-0.154,1.028,0.431,1.62L195.236,171.447z M456.938,163.683l19.91-19.326l-38.655-0.182l-15.147,19.508  L456.938,163.683L456.938,163.683z M458.313,243.336l20.831-26.75l0.603-72.255l-21.434,20.804V243.336z"/>
<path id="color_x5F_5" fill="#ffffff" d="M399.391,165.683h20.5v27.625h-20.5V165.683z M420.512,163.683l15.158-19.52  l-17.223-0.081l-17.797,19.601H420.512L420.512,163.683z M435.586,246.264c-1.416-1.18-15.928-1.93-29.114-1.942l-0.663-0.001  l-0.258-0.611c-0.282-0.672-0.168-1.208-0.021-1.539c0.427-0.972,1.578-1.384,2.797-1.821c0.971-0.348,2.178-0.781,2.432-1.381  c0.108-0.256,0.057-0.622-0.155-1.089c-1.278-1.373-17.944-1.269-23.272,1.964c-1.111,0.673-2.827,6.734-2.559,10.507h18.946  c0.168-0.001,16.914-0.105,25.574-1.21c4.105-0.523,6.701-0.973,7.743-1.341c-0.077-0.073-0.155-0.147-0.226-0.213  C436.435,247.234,435.967,246.798,435.586,246.264z M240.764,269.384c0.176,1.311,0.279,2.074,0.293,2.533  c0.491,1.479,7.801,12.614,21.199,10.775c13.438-1.832,12.699-9.884,12.661-10.226l-0.692-14.456  c-2.045,0.337-4.194,0.563-6.451,0.672l-11.504,0.001v-2h11.455c11.596-0.565,20.248-4.254,25.667-10.96  c9.602-11.882,6.624-30.004,5.646-35.959c-0.037-0.223-0.068-0.417-0.098-0.596c-0.275,0.122-0.539,0.245-0.821,0.366l-0.204,0.088  l-0.222-0.008c-0.333-0.01-33.405-1.057-43.575-1.057c-1.518,0-2.19,0.023-2.495,0.043l-0.255,0.033  c-0.833,0.308-0.895,1.18-0.627,3.955c0.293,3.031,0.693,7.184-2.372,11.027c-1.241,1.556-2.407,2.313-3.565,2.313  c-3.195,0-4.123-5.675-4.356-7.774c-0.895-0.484-3.081-1.542-5.118-1.542c-2.408,0-3.768,1.544-4.158,4.72  c-0.438,3.574,0.124,6.273,1.672,8.022c1.881,2.127,4.678,2.188,4.99,2.188h0.974l0.085,0.972l0.721,26.636  C240.023,263.882,240.486,267.325,240.764,269.384z M281.371,375.867c0.162-0.842,0.41-1.929,0.69-3.156  c1.021-4.464,2.919-12.772,1.263-14.623c-0.143-0.159-0.354-0.311-0.857-0.257c-2.4,0.274-6.176,3.953-9.209,6.909  c-3.768,3.675-6.494,6.325-8.401,5.122c-1.762-1.113-0.435-3.485,0.848-5.779c0.584-1.045,1.799-3.218,1.55-3.716  c-0.003,0-0.04-0.029-0.141-0.06c-1.576-0.479-9.361,5.61-16.025,11.874c1.742,3.006,3.744,7.605,4.574,13.763  C266.261,383.519,280.782,378.929,281.371,375.867z"/>
<path id="color_x5F_3" fill="#ffffff" d="M297.482,182.446c1.315,0.529,13.941,5.795,14.068,12.669  c0.078,4.177-4.769,8.495-14.018,12.494c-2.933-0.092-33.656-1.051-43.416-1.051c-0.814,0-1.409,0.007-1.857,0.018  c0.453-3.713,2.543-15.536,11.122-20.533C273.373,180.223,295.611,182.263,297.482,182.446z M266.4,334.966h-19.844v3.833H266.4  V334.966z M403.656,260.79h-21.813c-2.422,13.533-7.543,37.964-14.314,47.152c-2.367,3.212-5.529,5.081-9.397,5.555  c-9.118,1.114-21.989-5.333-39.333-19.715c-12.65-10.489-22.416-16.117-29.362-19.144c-1.41,1.848-8.103,10.615-9.879,12.971  c-1.479,1.964-3.115,2.956-4.866,2.956c-0.168,0-0.336-0.01-0.506-0.027c-3.607-0.386-6.378-4.976-7.333-6.776  c-1.277,0.378-2.706,0.692-4.327,0.913c-0.748,0.102-1.473,0.155-2.184,0.188c-0.852,1.524-3.628,5.965-7.772,7.316  c-0.809,0.265-1.62,0.396-2.433,0.396c-1.297,0-2.592-0.336-3.875-1.005c-6.7-3.496-13.271-9.373-15.08-11.047  c-4.803,2.098-38.967,18.365-52.967,61.585c-8.776,27.093-8.652,50.282,0.339,63.621c4.089,6.065,9.647,9.515,16.075,9.974  c13.479,0.948,39.337-12.786,52.131-20.145l-6.874-22.021c-3.909,1.634-8.647,3.146-12.829,3.146  c-20.424,0-24.744-9.534-24.918-9.94l1.838-0.787c0.026,0.06,2.26,4.786,11.059,7.257c-0.114-2.694-0.354-8.949-0.393-14.908  c-0.088-13.306,5.246-28.326,5.473-28.959l1.883,0.676c-0.055,0.151-5.441,15.325-5.355,28.27  c0.043,6.417,0.317,13.183,0.416,15.421c2.756,0.594,6.051,0.972,9.998,0.972c1.072,0,2.193-0.113,3.334-0.309v-35.577h14.166  v-5.833h23.844v5.833h14.953v17.1c0.682,0.153,1.159,0.518,1.462,0.855c2.169,2.425,0.919,8.863-0.804,16.402  c-0.266,1.161-0.5,2.188-0.658,2.999v41.594h-52.963V406.59c-8.973,4.39-18.875,8.535-27.134,10.281l0.313,0.058l-6.23,34.126  c39.904-0.013,91.626,0.083,133.65,0.183c-0.289-2.906-1.472-11.055-2.928-21.091c-2.115-14.578-5.014-34.543-6.943-50.671  c-3.498-29.222-1.932-29.891-0.787-30.379c1.533-0.654,4.047,0.384,8.206,2.104c13.478,5.572,41.524,17.171,64.995-22.03  C405.477,309.221,404.836,276.665,403.656,260.79z"/>
<path id="color_x5F_2" fill="#4a90e2" d="M232.391,405.602c12.284-6.147,22.36-12.43,23.198-12.955l0.469-0.294v-0.554  c0-1.346-0.076-2.616-0.184-3.851c4.667-1.061,19.949-4.775,25.479-9.087v36.888H232.39v-10.147H232.391z M232.391,340.799v33.155  c7.156-1.752,14.393-6.072,14.484-6.127l0.684-0.413l0.555,0.577c0.098,0.103,0.873,0.934,1.897,2.455  c4.477-4.193,14.423-13.04,17.679-12.055c0.868,0.262,1.251,0.812,1.418,1.227c0.582,1.436-0.506,3.381-1.658,5.44  c-0.533,0.955-1.401,2.508-1.438,3.114c0.94-0.077,3.884-2.945,5.853-4.864c3.249-3.168,6.598-6.425,9.49-7.272v-15.237h-12.953  v4.667h-23.844v-4.667L232.391,340.799L232.391,340.799z M246.557,343.466h19.844v-2.667h-19.844V343.466z"/>
<path id="color_x5F_1" fill="#0984e3" d="M330.041,429.859c-3.523-24.285-10.82-74.559-8.775-78.963  c0.943-0.152,3.771,1.021,6.508,2.152c13.996,5.788,43.12,17.828,67.475-22.852c15.367-25.668,10.604-70.048,9.616-77.858  c3.939-0.045,17.224-0.265,24.683-1.215c7.948-1.014,9.34-1.545,9.723-2.73c0.22-0.682-0.097-1.229-0.533-1.711h19.576v-0.092  l22.825-29.312l0.624-74.845l-0.061-0.001l0.055-0.054l-95.11-0.447l-0.3-0.001l-33.381,21.751h-0.703v83h30.717  c-0.176,1.329-0.246,2.603-0.195,3.667h-1.257l-0.125,0.855c-0.063,0.431-6.404,43.231-15.482,55.552  c-2.056,2.79-4.683,4.345-8.03,4.755c-8.432,1.027-21.151-5.452-37.814-19.269c-26.672-22.117-40.873-23.116-43.316-23.104  l-0.548-11.499c8.081-1.682,14.364-5.249,18.737-10.66c10.164-12.578,7.078-31.366,6.063-37.54c-0.066-0.412-0.134-0.82-0.182-1.143  c8.523-4.097,12.811-8.537,12.723-13.223c-0.149-7.907-12.707-13.417-15.098-14.395c-1.298-2.538-9.445-16.354-32.804-16.354  l-0.403,0.001c-23.726,0.163-38.619,5.555-45.531,16.485c-7.867,12.441-13.007,49.423,2.525,70.101  c5.556,7.396,12.938,8.908,15.452,9.215c0.396,4.357,0.825,7.567,1.089,9.522c0.154,1.148,0.276,2.056,0.276,2.366  c0,0.273,0.177,0.738,0.479,1.312l-8.593,5.124c-1.713,0.696-39.6,16.64-54.631,63.039c-8.967,27.683-8.755,51.504,0.583,65.356  c4.382,6.499,10.628,10.353,17.591,10.85c0.484,0.035,0.982,0.052,1.494,0.052c1.697,0,3.549-0.194,5.504-0.533l-6.178,33.84  c-35.205,0.015-60.729,0.116-61.322,0.38l0.5,1.125l0.106,0.767c3.618-0.503,158.388-0.205,239.719,0.022l0.006-2  c-11.636-0.032-25.78-0.07-41.317-0.107C332.732,448.408,331.58,440.466,330.041,429.859z M429.293,249.14  c-8.66,1.104-25.406,1.209-25.574,1.21h-18.947c-0.269-3.772,1.447-9.834,2.559-10.507c5.328-3.232,21.994-3.337,23.272-1.964  c0.212,0.467,0.264,0.833,0.155,1.089c-0.254,0.6-1.461,1.033-2.432,1.381c-1.219,0.438-2.37,0.85-2.797,1.821  c-0.146,0.331-0.261,0.867,0.021,1.539l0.258,0.611l0.663,0.001c13.187,0.013,27.698,0.763,29.114,1.942  c0.381,0.534,0.849,0.971,1.225,1.322c0.07,0.065,0.148,0.14,0.226,0.213C435.994,248.167,433.398,248.616,429.293,249.14z   M479.144,216.586l-20.831,26.75v-78.201l21.434-20.804L479.144,216.586z M476.848,144.356l-19.91,19.326h-33.893l15.147-19.508  L476.848,144.356z M435.67,144.163l-15.158,19.52h-19.861l17.797-19.601L435.67,144.163z M419.891,165.683v27.625h-20.5v-27.625  H419.891z M386.936,143.934l28.822,0.136l-17.811,19.613h-41.32L386.936,143.934z M354.262,244.683v-79h43.129v29.625h24.5v-29.625  h34.422v79h-19.602c-3.187-1.876-17.83-2.296-27.98-2.354c0.096-0.035,0.188-0.068,0.271-0.098c1.407-0.505,3.003-1.077,3.599-2.484  c0.336-0.791,0.275-1.698-0.176-2.694c-0.271-0.599-0.9-1.043-1.922-1.359c-4.531-1.401-19.219-0.585-24.208,2.438  c-1.314,0.797-2.375,3.589-2.979,6.551H354.262z M383.252,252.35h19.594c0.141,1.144,0.396,3.397,0.652,6.44h-21.302  C382.715,255.804,383.071,253.533,383.252,252.35z M276.909,272.303l-0.056-1.161c1.02,0.014,4.563,0.271,10.675,2.701  c-1.901,2.49-7.9,10.353-9.567,12.563c-1.168,1.549-2.359,2.278-3.561,2.143c-2.318-0.246-4.547-3.468-5.633-5.445  C277.668,279.539,276.914,272.327,276.909,272.303z M311.551,195.115c0.078,4.177-4.769,8.495-14.018,12.494  c-2.933-0.092-33.656-1.051-43.416-1.051c-0.814,0-1.409,0.007-1.857,0.018c0.453-3.713,2.543-15.536,11.122-20.533  c9.991-5.82,32.229-3.78,34.101-3.597C298.798,182.976,311.424,188.241,311.551,195.115z M221.405,181.881  c6.519-10.309,20.864-15.396,43.854-15.554l0.39-0.001c19.218,0,27.66,10.017,30.244,13.972c-6.005-0.473-24.256-1.379-33.519,4.017  c-9.828,5.726-11.802,18.966-12.156,22.451c-8.221,1.059-29.682,3.891-35.908,5.35C214.68,199.517,217.619,187.868,221.405,181.881z   M223.84,249.712c-7.056-9.392-9.652-22.83-9.565-35.563c3.663-0.982,21.733-3.516,34.492-5.178  c-0.273,1.119-0.146,2.476-0.017,3.812c0.273,2.841,0.615,6.377-1.945,9.587c-1.123,1.408-1.774,1.561-2.002,1.561  c-1.098,0-2.154-3.411-2.416-6.472l-0.043-0.5l-0.426-0.265c-0.136-0.085-3.383-2.08-6.59-2.08c-1.998,0-5.451,0.842-6.143,6.476  c-0.512,4.168,0.215,7.396,2.158,9.592c1.808,2.043,4.182,2.632,5.572,2.798l0.666,24.613  C235.075,257.708,228.656,256.124,223.84,249.712z M238.891,232.516l-0.085-0.972h-0.974c-0.313,0-3.109-0.062-4.99-2.188  c-1.548-1.749-2.109-4.448-1.672-8.022c0.391-3.176,1.75-4.72,4.158-4.72c2.037,0,4.224,1.058,5.118,1.542  c0.233,2.1,1.161,7.774,4.356,7.774c1.158,0,2.324-0.757,3.565-2.313c3.065-3.844,2.665-7.996,2.372-11.027  c-0.268-2.775-0.206-3.647,0.627-3.955l0.255-0.033c0.305-0.02,0.978-0.043,2.495-0.043c10.17,0,43.242,1.047,43.575,1.057  l0.222,0.008l0.204-0.088c0.282-0.121,0.546-0.244,0.821-0.366c0.029,0.179,0.061,0.373,0.098,0.596  c0.979,5.955,3.956,24.077-5.646,35.959c-5.419,6.706-14.071,10.395-25.667,10.96h-11.455v2l11.504-0.001  c2.257-0.109,4.406-0.335,6.451-0.672l0.692,14.456c0.038,0.342,0.776,8.394-12.661,10.226  c-13.398,1.839-20.708-9.296-21.199-10.775c-0.014-0.459-0.117-1.223-0.293-2.533c-0.277-2.059-0.74-5.502-1.152-10.232  L238.891,232.516z M240.605,275.021c0.928,1.289,2.227,2.779,3.787,4.142c2.93,2.557,7.484,5.353,13.612,5.699  c-1.104,1.717-3.253,4.503-6.056,5.416c-1.59,0.52-3.148,0.363-4.763-0.48c-5.882-3.068-11.847-8.212-14.133-10.274L240.605,275.021  z M197.34,451.055l6.23-34.126l-0.313-0.058c8.259-1.746,18.161-5.892,27.134-10.281v11.159h52.963v-41.594  c0.158-0.812,0.393-1.838,0.658-2.999c1.723-7.539,2.973-13.978,0.804-16.402c-0.303-0.338-0.78-0.702-1.462-0.855v-17.1h-14.953  v-5.833h-23.844v5.833h-14.166v35.576c-1.141,0.195-2.262,0.309-3.334,0.309c-3.947,0-7.242-0.378-9.998-0.972  c-0.099-2.238-0.373-9.004-0.416-15.421c-0.086-12.944,5.301-28.118,5.355-28.27l-1.883-0.676  c-0.227,0.633-5.561,15.653-5.473,28.959c0.039,5.959,0.278,12.214,0.393,14.908c-8.799-2.471-11.032-7.197-11.059-7.257  l-1.838,0.787c0.174,0.406,4.494,9.94,24.918,9.94c7.725,0,17.381-5.161,20.114-6.715c1.64,2.05,6.729,9.359,6.884,21.275  c-4.661,2.868-42.334,25.662-59.426,24.459c-6.428-0.459-11.986-3.908-16.075-9.974c-8.991-13.339-9.115-36.528-0.339-63.621  c14-43.22,48.164-59.487,52.967-61.585c1.809,1.674,8.38,7.551,15.08,11.047c1.283,0.669,2.578,1.005,3.875,1.005  c0.813,0,1.624-0.132,2.433-0.396c4.145-1.352,6.921-5.792,7.772-7.316c0.711-0.032,1.436-0.086,2.184-0.188  c1.621-0.221,3.05-0.535,4.327-0.913c0.955,1.801,3.726,6.391,7.333,6.776c0.17,0.018,0.338,0.027,0.506,0.027  c1.751,0,3.387-0.992,4.866-2.956c1.776-2.355,8.469-11.123,9.879-12.971c6.946,3.026,16.712,8.654,29.362,19.144  c17.344,14.382,30.215,20.829,39.333,19.715c3.868-0.474,7.03-2.343,9.397-5.555c6.771-9.188,11.893-33.619,14.314-47.152h21.813  c1.18,15.875,1.82,48.431-10.123,68.38c-23.471,39.201-51.518,27.603-64.995,22.03c-4.159-1.72-6.673-2.758-8.206-2.104  c-1.145,0.488-2.711,1.157,0.787,30.379c1.93,16.128,4.828,36.093,6.943,50.671c1.456,10.036,2.639,18.185,2.928,21.091  C288.966,451.138,237.244,451.042,197.34,451.055z M268.4,345.466v-4.667h12.953v15.237c-2.893,0.848-6.241,4.104-9.49,7.272  c-1.969,1.919-4.912,4.787-5.853,4.864c0.037-0.606,0.905-2.159,1.438-3.114c1.152-2.06,2.24-4.005,1.658-5.44  c-0.167-0.415-0.55-0.965-1.418-1.227c-3.256-0.985-13.202,7.861-17.679,12.055c-1.024-1.521-1.8-2.353-1.897-2.455l-0.555-0.577  l-0.684,0.413c-0.092,0.055-7.328,4.375-14.484,6.127v-33.155h12.166v4.667L268.4,345.466L268.4,345.466z M266.4,340.799v2.667  h-19.844v-2.667H266.4z M246.557,338.799v-3.833h19.844v3.833H246.557z M267.113,360.308c0.101,0.03,0.138,0.06,0.141,0.06  c0.249,0.498-0.966,2.671-1.55,3.716c-1.282,2.294-2.609,4.666-0.848,5.779c1.907,1.203,4.634-1.447,8.401-5.122  c3.033-2.956,6.809-6.635,9.209-6.909c0.504-0.054,0.715,0.098,0.857,0.257c1.656,1.851-0.242,10.159-1.263,14.623  c-0.28,1.228-0.528,2.314-0.69,3.156c-0.589,3.062-15.11,7.651-25.709,10.077c-0.83-6.157-2.832-10.757-4.574-13.763  C257.752,365.918,265.537,359.829,267.113,360.308z M256.058,392.353v-0.554c0-1.346-0.076-2.616-0.184-3.851  c4.667-1.061,19.949-4.775,25.479-9.087v36.888H232.39v-10.147c12.284-6.147,22.36-12.43,23.198-12.955L256.058,392.353z   M471.891,451.053h14.5v2h-14.5V451.053z M108.891,451.053h13.5v2h-13.5V451.053z M458.391,400.166  c-0.505-31.299-10.688-35.828-11.121-36.006l-0.426-0.174l-0.41,0.21c-0.248,0.127-22.842,12.006-24.855,34.407  c-1.179-3.196-2.594-6.354-4.316-9.412c-15.479-27.462-23.605-25.281-24.48-24.941l-0.326,0.126l-0.176,0.3  c-22.484,38.292-1.424,77.921,3.718,86.525h-8.106v2h78v-2h-15.016C452.766,445.791,458.813,426.351,458.391,400.166z   M398.34,451.201c-3.298-5.239-26.473-44.568-5.664-83.152l16.032,83.152H398.34z M410.744,451.201l-16.402-85.077  c2.35,0.309,9.418,3.185,21.178,24.05c13.756,24.405,8.265,55.37,7.098,61.027H410.744L410.744,451.201z M424.656,451.201  c1.076-5.405,4.484-25.998-1.13-46.526l0.012-0.001c-1.752-21.238,16.331-34.149,22.081-37.693l-11.621,84.221h-9.342  L424.656,451.201L424.656,451.201z M436.018,451.201l11.639-84.349c2.529,2.274,8.358,10.024,8.734,33.347  c0.438,27.184-6.168,46.954-7.638,51.002H436.018z M156.52,201.386l20.416,2.138c0.152,0.017,0.302,0.024,0.449,0.024  c1.752,0,3.132-1.044,3.283-2.481c0.083-0.797-0.244-1.6-0.896-2.203c-0.582-0.539-1.38-0.885-2.245-0.975l-20.417-2.138  c-1.945-0.208-3.567,0.899-3.73,2.458c-0.084,0.796,0.242,1.599,0.896,2.202C154.857,200.949,155.654,201.295,156.52,201.386z   M156.661,197.727c0.079,0,0.159,0.005,0.24,0.013l20.417,2.138c0.433,0.046,0.832,0.211,1.096,0.455  c0.109,0.101,0.287,0.302,0.264,0.525c-0.037,0.369-0.693,0.76-1.533,0.678l-20.416-2.138c-0.434-0.046-0.833-0.212-1.097-0.455  c-0.108-0.101-0.287-0.302-0.264-0.525C155.402,198.084,155.931,197.727,156.661,197.727z M165.508,177.201l18.13,9.627  c0.597,0.317,1.248,0.485,1.884,0.485c1.109,0,2.043-0.511,2.496-1.365c0.377-0.708,0.375-1.575-0.005-2.379  c-0.339-0.718-0.948-1.338-1.716-1.746l-18.131-9.629c-0.596-0.315-1.246-0.482-1.881-0.482c-1.111,0-2.045,0.511-2.5,1.366  c-0.375,0.707-0.373,1.574,0.006,2.378C164.129,176.174,164.739,176.794,165.508,177.201z M165.553,174.016  c0.1-0.188,0.38-0.304,0.732-0.304c0.309,0,0.635,0.086,0.943,0.249l18.129,9.628c0.385,0.204,0.693,0.508,0.847,0.833  c0.063,0.134,0.153,0.389,0.048,0.588c-0.188,0.353-1.015,0.403-1.676,0.053l-18.131-9.627c-0.385-0.204-0.692-0.508-0.846-0.832  C165.537,174.469,165.446,174.215,165.553,174.016z M193.814,172.853c0.74,0.75,1.699,1.18,2.631,1.18  c0.703,0,1.348-0.253,1.811-0.712c0.471-0.465,0.732-1.112,0.736-1.824c0.006-0.927-0.413-1.884-1.147-2.627l-14.431-14.601  c-1.299-1.313-3.363-1.533-4.444-0.465c-1.13,1.117-0.948,3.071,0.413,4.449L193.814,172.853z M180.375,155.227  c0.113-0.112,0.285-0.136,0.408-0.136c0.39,0,0.854,0.224,1.209,0.584l14.43,14.601c0.354,0.357,0.572,0.82,0.57,1.209  c-0.001,0.125-0.025,0.299-0.143,0.413c-0.111,0.111-0.281,0.135-0.404,0.135c-0.389,0-0.852-0.224-1.209-0.585l-14.431-14.601  C180.221,156.255,180.096,155.503,180.375,155.227z M246.789,396.016l-6.917-22.671l0.89-0.707l6.882,22.392L246.789,396.016z"/>
</svg>